<?xml version="1.0" standalone="no"?>
<!DOCTYPE svg PUBLIC "-//W3C//DTD SVG 20010904//EN"
 "http://www.w3.org/TR/2001/REC-SVG-20010904/DTD/svg10.dtd">
<svg version="1.0" xmlns="http://www.w3.org/2000/svg"
 width="200.000000pt" height="200.000000pt" viewBox="0 0 200.000000 200.000000"
 preserveAspectRatio="xMidYMid meet">
<metadata>
Created by potrace 1.16, written by Peter Selinger 2001-2019
</metadata>
<g transform="translate(0.000000,200.000000) scale(0.100000,-0.100000)"
fill="#000000" stroke="none">
<path d="M1617 1510 c-101 -26 -214 -120 -238 -198 -10 -34 -5 -52 56 -222 37
-102 72 -197 77 -212 14 -39 64 -53 188 -52 74 0 116 5 143 17 l37 16 0 64 0
64 -52 -18 c-186 -64 -329 36 -316 221 8 114 77 187 186 197 54 5 115 -4 166
-23 14 -5 16 3 16 64 0 64 -2 70 -22 76 -41 12 -202 16 -241 6z"/>
<path d="M339 1497 c-208 -57 -309 -275 -228 -491 26 -71 106 -147 181 -172
52 -17 225 -23 248 -9 5 3 10 32 10 64 l0 57 -82 0 c-73 -1 -89 2 -130 26 -63
37 -91 96 -91 188 0 87 29 150 86 188 36 24 50 27 129 27 l89 0 -3 65 -3 65
-80 2 c-44 1 -101 -4 -126 -10z"/>
<path d="M580 1165 l0 -335 75 0 75 0 0 130 0 130 84 0 84 0 15 43 c8 23 18
50 22 60 7 16 -2 17 -99 17 l-106 0 0 85 0 85 120 0 120 0 0 60 0 60 -128 0
-128 0 -58 -66 c-32 -36 -61 -63 -64 -60 -3 3 18 30 46 60 29 30 52 57 52 60
0 3 -25 6 -55 6 l-54 0 -1 -335z"/>
<path d="M1076 1492 c-5 -9 -246 -661 -246 -667 0 -2 36 -3 81 -2 l81 2 24 78
25 78 122 -3 122 -3 25 -75 26 -75 77 -1 c56 -1 77 2 77 11 0 7 -50 151 -111
321 -61 170 -113 317 -116 327 -5 14 -18 17 -94 17 -48 0 -90 -4 -93 -8z m133
-266 c23 -71 39 -131 37 -133 -2 -2 -42 -3 -89 -1 l-85 3 46 140 c24 77 46
136 48 130 1 -5 21 -68 43 -139z"/>
<path d="M1220 615 l0 -105 28 -1 c39 -1 250 -1 455 0 l177 1 0 105 0 105
-330 0 -330 0 0 -105z m228 63 c15 -15 15 -51 0 -66 -10 -10 -8 -19 5 -42 l18
-30 -25 0 c-17 0 -30 9 -40 28 l-15 27 -1 -27 c0 -27 -2 -28 -55 -28 -43 0
-58 5 -75 22 -26 28 -26 68 1 102 19 24 26 26 98 26 46 0 82 -5 89 -12z m152
-8 c24 -24 26 -77 4 -108 -20 -29 -85 -31 -114 -2 -30 30 -22 98 14 122 22 15
76 8 96 -12z m60 -21 c0 -45 16 -83 31 -74 5 4 9 31 9 61 l0 54 64 0 c68 0 96
-14 96 -50 0 -24 -26 -50 -51 -50 -14 0 -19 -7 -19 -25 0 -18 -5 -25 -20 -25
-12 0 -20 7 -20 16 0 14 -2 14 -16 -1 -11 -11 -30 -15 -58 -13 l-41 3 -3 73
c-2 59 0 72 13 72 11 0 15 -11 15 -41z"/>
</g>
</svg>
